<svg width="65" height="36" viewBox="0 0 65 36" fill="none" xmlns="http://www.w3.org/2000/svg">
<g clip-path="url(#clip0_18217_34)">
<path d="M31.0742 19.3992C31.0742 20.1609 31.1012 20.8926 31.0682 21.6243C30.9752 23.6964 30.6934 25.7386 29.8717 27.6608C28.4383 31.0164 26.0543 33.4184 22.6177 34.7438C20.7165 35.4785 18.8813 36.0003 16.8151 36.0003C15.3907 36.0003 14.6081 35.9433 13.5945 35.7994C11.8942 35.5595 10.5597 35.1847 9.00939 34.5159C6.72134 33.5293 4.78415 32.0779 3.25778 30.1168C1.56649 27.9457 0.540916 25.4777 0.354993 22.7278C0.181066 20.1309 0.0611158 17.528 0.0311283 14.9281C-0.0198505 10.301 0.00713825 0.0392965 0.00713825 0.0392965L10.4218 0.0153065C10.4218 0.0153065 10.4128 13.9355 10.4218 20.3918C10.4218 22.41 10.6857 24.3802 11.7652 26.1434C13.3816 28.7793 15.7266 30.3867 18.8063 30.7675C22.2069 31.1903 24.8218 29.7899 26.759 27.043C27.8955 25.4297 28.4293 23.5975 28.6782 21.6633C28.7742 20.9106 28.9091 20.1639 29.026 19.4022H31.0772L31.0742 19.3992Z" fill="#050505"/>
<path d="M24.6953 0.00629997H38.3066L51.2373 22.398L44.4301 34.1861L24.6953 0.00629997Z" fill="#050505"/>
<path d="M49.2734 0.0092938L64.1742 0.000297546L56.7133 12.9219L55.3099 5.12216L49.2734 0.0092938Z" fill="#C5A059"/>
</g>
<defs>
<clipPath id="clip0_18217_34">
<rect width="64.1763" height="36" fill="white"/>
</clipPath>
</defs>
</svg>
